<svg width="32" height="32" viewBox="0 0 32 32" fill="none" xmlns="http://www.w3.org/2000/svg">
<path d="M30.03 8.92827C28.5108 10.8187 25.7466 11.1157 23.8619 9.59647C21.9715 8.07732 21.6745 5.31882 23.1937 3.42842C24.7129 1.54373 27.4714 1.24104 29.3618 2.76022C31.2521 4.27367 31.5492 7.03789 30.03 8.92827Z" fill="#231F20"/>
<path d="M24.1075 15.7817C22.891 16.3413 21.4346 16.3299 20.1896 15.6218L16.7401 20.2022C17.1684 20.7047 17.4083 21.3329 17.4368 21.9783C17.4596 22.5494 17.3112 23.1377 16.9799 23.6574C16.1176 24.9938 14.3242 25.3822 12.9878 24.5141C12.845 24.4227 12.7194 24.3199 12.5994 24.2057C12.5595 24.1714 12.5252 24.1372 12.4909 24.0972C12.411 24.0115 12.3367 23.9258 12.2682 23.8345C12.2397 23.7945 12.2054 23.7545 12.1768 23.7145C12.0911 23.5889 12.0169 23.4632 11.9541 23.3262C11.937 23.2919 11.9256 23.2576 11.9084 23.2176C11.8627 23.1091 11.8227 22.9949 11.7885 22.8807C11.777 22.8407 11.7656 22.795 11.7542 22.755C11.72 22.6122 11.6971 22.4695 11.6857 22.3267C11.6857 22.2867 11.6857 22.2467 11.6857 22.2068C11.6799 22.0754 11.6857 21.944 11.6914 21.8127C11.6914 21.7841 11.6914 21.7556 11.6971 21.7327C11.7142 21.5785 11.7485 21.43 11.7885 21.2816C11.7999 21.2473 11.8113 21.213 11.8227 21.1731C11.8741 21.0188 11.9312 20.8704 12.0112 20.7219L9.22986 18.6316L8.36746 19.7795L5.18634 17.3865L7.57934 14.2054L10.7605 16.5984L9.89806 17.7464L12.7079 19.8595C13.5818 19.1284 14.8382 18.9685 15.8834 19.5054L19.3215 14.9421C17.9508 13.6 17.6025 11.4526 18.6133 9.71644C18.8132 9.37376 19.0531 9.07674 19.3215 8.80833C17.454 7.53474 15.1923 6.78087 12.7593 6.77515C6.27717 6.76944 1.01718 12.0009 1.00004 18.4659C0.982908 24.9367 6.21435 30.191 12.6851 30.2081C19.1559 30.2253 24.4101 24.9938 24.4273 18.5231C24.4273 17.575 24.3188 16.6555 24.1075 15.776V15.7817Z" fill="#EE0C5D"/>
</svg>
