<svg width="49" height="48" viewBox="0 0 49 48" fill="none" xmlns="http://www.w3.org/2000/svg">
<path d="M39.933 16.0363C38.2619 18.1652 35.2213 18.4996 33.1481 16.7888C31.0687 15.078 30.742 11.9716 32.413 9.84281C34.0841 7.72043 37.1185 7.37956 39.198 9.09034C41.2774 10.7947 41.6041 13.9075 39.933 16.0363Z" fill="#231F20"/>
<path d="M33.4183 23.754C32.0801 24.3843 30.4781 24.3715 29.1085 23.574L25.3141 28.732C25.7853 29.298 26.0491 30.0055 26.0805 30.7322C26.1056 31.3754 25.9423 32.0378 25.5779 32.6231C24.6293 34.128 22.6567 34.5654 21.1866 33.5878C21.0295 33.4849 20.8913 33.3691 20.7594 33.2405C20.7154 33.2019 20.6778 33.1633 20.64 33.1183C20.5521 33.0218 20.4704 32.9253 20.395 32.8225C20.3636 32.7774 20.3259 32.7324 20.2945 32.6874C20.2002 32.5459 20.1186 32.4044 20.0495 32.25C20.0307 32.2115 20.0181 32.1729 19.9993 32.1278C19.949 32.0057 19.905 31.877 19.8673 31.7484C19.8547 31.7034 19.8422 31.6519 19.8296 31.6069C19.792 31.4461 19.7668 31.2853 19.7542 31.1245C19.7542 31.0795 19.7542 31.0345 19.7542 30.9895C19.7479 30.8416 19.7542 30.6936 19.7605 30.5457C19.7605 30.5135 19.7605 30.4814 19.7668 30.4557C19.7856 30.282 19.8233 30.1148 19.8673 29.9476C19.8799 29.909 19.8924 29.8704 19.905 29.8254C19.9615 29.6517 20.0244 29.4845 20.1123 29.3173L17.0528 26.9634L16.1042 28.2561L12.605 25.5613L15.2373 21.979L18.7365 24.6738L17.7879 25.9665L20.8787 28.3461C21.8399 27.5229 23.222 27.3428 24.3717 27.9474L28.1537 22.8086C26.6459 21.2972 26.2627 18.879 27.3747 16.9239C27.5945 16.538 27.8584 16.2035 28.1537 15.9012C26.0994 14.467 23.6115 13.6181 20.9353 13.6116C13.8049 13.6052 8.01889 19.4964 8.00005 26.7769C7.9812 34.0637 13.7358 39.9806 20.8536 40C27.9715 40.0193 33.7512 34.128 33.77 26.8412C33.77 25.7735 33.6507 24.738 33.4183 23.7476V23.754Z" fill="#EE0C5D"/>
</svg>
